<?xml version="1.0" encoding="utf-8"?>
<!-- Generator: Adobe Illustrator 22.0.0, SVG Export Plug-In . SVG Version: 6.00 Build 0)  -->
<svg version="1.0" id="colores" xmlns="http://www.w3.org/2000/svg" xmlns:xlink="http://www.w3.org/1999/xlink" x="0px" y="0px"
	 viewBox="0 0 1300 1300" style="enable-background:new 0 0 1300 1300;" xml:space="preserve">
<style type="text/css">
	.st0{opacity:0.6;}
	.st1{filter:url(#Adobe_OpacityMaskFilter);}
	.st2{filter:url(#Adobe_OpacityMaskFilter_1_);}
	.st3{mask:url(#SVGID_1_);fill:url(#SVGID_2_);}
	.st4{fill:url(#SVGID_3_);}
	.st5{filter:url(#Adobe_OpacityMaskFilter_2_);}
	.st6{filter:url(#Adobe_OpacityMaskFilter_3_);}
	.st7{mask:url(#SVGID_4_);fill:url(#SVGID_5_);}
	.st8{fill:url(#SVGID_6_);}
	.st9{fill:#D6843A;}
	.st10{fill:#E79C5A;}
	.st11{fill:#AD3E27;}
	.st12{fill:#C26233;}
	.st13{fill:#EDBC75;}
	.st14{fill:#A36B2B;}
	.st15{fill:#C7873F;}
	.st16{fill:#D0A64F;}
	.st17{fill:#EBC56A;}
	.st18{fill:#F2D28A;}
	.st19{fill:#E09A51;}
	.st20{opacity:0.6;fill:url(#SVGID_7_);}
	.st21{fill:url(#SVGID_8_);}
	.st22{fill:#CD8434;}
	.st23{fill:#E29C3E;}
	.st24{fill:#EBB251;}
	.st25{fill:#F0C866;}
	.st26{fill:#F6E290;}
	.st27{fill:#EAE0AB;}
	.st28{opacity:0.8;fill:#EAE0AB;}
	.st29{fill:#F2E9BC;}
	.st30{fill:#DF923C;}
	.st31{fill:#EBB247;}
	.st32{fill:#F1CB5A;}
	.st33{fill:#ECC042;}
	.st34{fill:#D78C33;}
	.st35{fill:#CB7528;}
	.st36{fill:#E9A440;}
	.st37{fill:#CE792C;}
	.st38{fill:#BB4B1D;}
	.st39{fill:#CE4927;}
	.st40{fill:#AF361D;}
	.st41{fill:#E06F30;}
	.st42{fill:#EAAB5B;}
	.st43{fill:#E4AF5D;}
	.st44{fill:#DB9640;}
	.st45{fill:#CB8644;}
	.st46{fill:#F0C75A;}
	.st47{fill:#F3D673;}
	.st48{fill:#F4DA57;}
	.st49{fill:#F1CD54;}
	.st50{fill:#F7E482;}
	.st51{fill:#E3D6CA;}
	.st52{fill:#CAB8A7;}
	.st53{fill:#D0C5BB;}
	.st54{fill:#F4EAE3;}
	.st55{fill:#AF9887;}
	.st56{fill:#CFBDAD;}
	.st57{fill:#EFE4DA;}
	.st58{fill:#FCF7F2;}
	.st59{fill:#CBC0B6;}
	.st60{fill:#AC9A8A;}
	.st61{fill:#CDBBA9;}
	.st62{fill:#CABEB2;}
	.st63{fill:#836050;}
	.st64{fill:#4D3124;}
	.st65{fill:#79412B;}
	.st66{fill:#643321;}
</style>
<g id="color">
</g>
<g>
	<g>
		<path class="st51" d="M931.8,425.9L899,593.1c144.7,41.9,187.1-50.3,195.5-100C1102.8,443.4,1085.5,388.5,931.8,425.9z
			 M1029.3,503.8c-2.7,15.8-16.4,45.1-63.3,31.8l10.6-53.2C1026.4,470.5,1032,488,1029.3,503.8z"/>
		<g>
			<path class="st52" d="M1026.7,513.1c12.4-7.5,17.6-19.9,19.2-28.4c3-15.8-3.3-33.3-58.2-21.5l-3.9,17.6
				c43.1-8.5,48.1,7.9,45.5,22.9C1028.8,506.6,1028,509.8,1026.7,513.1z"/>
			<path class="st53" d="M934,425.3c-0.8,0.2-1.5,0.3-2.2,0.5l-22.9,116.5L934,425.3z"/>
			<path class="st52" d="M902.7,573.9l-3.8,19.2c89.6,25.9,140,0.4,167.4-34.5C1033.6,582.4,982.2,594.7,902.7,573.9z"/>
		</g>
		<g>
			<path class="st54" d="M1034.5,518.1c1.3-7.2,0.8-14.7-4.6-19.8c0,1.8-0.2,3.7-0.5,5.5c-2.6,15.3-15.6,43-58.8,32.8l-2.9,14.2
				C1017.2,564.5,1031.6,534.4,1034.5,518.1z"/>
			<path class="st54" d="M931.4,437.7c93.2-22,138.9-12.8,159.3,8.8c-13.4-29-55-45.9-158.9-20.7L931.4,437.7z"/>
		</g>
	</g>
	<path class="st55" d="M230.1,759.7c184.5-77.2,670.5-77.2,874.5,0C815.5,933.4,434.1,928.6,230.1,759.7z"/>
	<path class="st56" d="M21.4,705.3c135.7-43.3,383-43.3,633.3-42.7c243,0.6,485.7,0.6,631.3,42.7
		C1105.3,808.6,870.2,864.6,656.4,870C411.3,876.2,161.2,814,21.4,705.3z"/>
	<path class="st57" d="M33.2,701.3c262-88.6,952.4-88.6,1242.2,0C864.6,900.7,322.9,895.2,33.2,701.3z"/>
	<path class="st58" d="M117.1,737.1c206.5-135.5,748.5-112.9,906.5-72.6C823.6,822.5,413.9,903.2,117.1,737.1z"/>
	<path class="st59" d="M263.1,709.7c164.3-52.5,597.1-52.5,778.8,0C784.4,827.7,444.8,824.5,263.1,709.7z"/>
	<path class="st60" d="M576.1,725.8c75.8-24.2,205.1-33.7,344.3-35.5c-209.3-27.8-522.1-23.7-657.2,19.4
		c115.3,72.8,292.2,95.8,473.4,76.3C675,771.4,621.6,754.6,576.1,725.8z"/>
	<path class="st57" d="M304.8,718c139.9-47.4,508.6-47.4,663.4,0C748.8,824.8,459.5,821.8,304.8,718z"/>
	<path class="st61" d="M447.8,780.6c-40.9-116.1,321-201.1,445.7-22.6C737.8,802.5,589.1,804.5,447.8,780.6z"/>
	<path class="st53" d="M279.2,383.5C295.7,595,380.9,774,628.3,773.9c253.1,0,347.2-115.7,366-397.6
		C890.7,263.6,444.8,275.7,279.2,383.5z"/>
	<path class="st60" d="M872.3,317.2c-3,208.9-541,328.6-424,412.9c53.8,38.7,252.5,87,400.4-6.6c92.2-58.4,133.8-169.9,145.6-347.2
		C969.9,349.8,926.4,330.3,872.3,317.2z"/>
	<path class="st51" d="M295.5,387.9c15.6,205.5,96.9,379.4,333,379.2c241.5-0.1,331.4-112.5,349.4-386.5
		C879,271.2,453.5,283.1,295.5,387.9z"/>
	<path class="st54" d="M346.1,406.7c10.2,172.7,69.2,318.9,243.4,319c178.2,0.1,245.3-94.3,260.3-324.5
		C777.5,309.1,463.3,318.7,346.1,406.7z"/>
	<path class="st51" d="M966.7,372.1C840,475.2,589.9,533.3,319.2,383.6c-10,4.5-11.1,15.3-20.7,20.3
		c298.4,183.9,550,114.5,674.3-3.2C965.6,394.5,975.9,377.6,966.7,372.1z"/>
	<path class="st58" d="M988.1,379c-124.2,117.8-403.3,192-701.7,8.1C515.5,261.2,876.8,282.2,988.1,379z"/>
	<path class="st62" d="M374.5,393.2c41.1,33.9,161.9,40.7,279.3,40.7c103.7,0,207.1,2.3,257.3-43
		C787.3,308.6,523.6,314.9,374.5,393.2z"/>
	<path class="st63" d="M420.9,415.5c119.7,45.8,353.3,51.3,455.8-2.6C757,358.6,564.5,364.4,420.9,415.5z"/>
	<path class="st64" d="M425.1,415.7c99.5,41,293.8,45.9,379.1-2.5C704.8,364.6,544.6,369.9,425.1,415.7z"/>
	<path class="st64" d="M791.9,432.6c0-2-5.5-3.6-12.3-3.6c-6.8,0-12.3,1.6-12.3,3.6c0,2,5.5,3.6,12.3,3.6
		C786.4,436.2,791.9,434.6,791.9,432.6z"/>
	<path class="st64" d="M807.5,425.5c0-1.7-4-3-9-3s-9,1.4-9,3c0,1.7,4,3,9,3S807.5,427.2,807.5,425.5z"/>
	<path class="st64" d="M793.4,394.9c0-1.7-4-3-9-3s-9,1.4-9,3c0,1.7,4,3,9,3S793.4,396.6,793.4,394.9z"/>
	<path class="st63" d="M807.9,413.1c0-2.4-5.8-4.4-13-4.4c-7.2,0-13,2-13,4.4c0,2.4,5.8,4.4,13,4.4
		C802,417.6,807.9,415.6,807.9,413.1z"/>
	<path class="st63" d="M796.8,417.1c0-2.4-5.8-4.4-13-4.4c-7.2,0-13,2-13,4.4c0,2.4,5.8,4.4,13,4.4
		C791,421.6,796.8,419.6,796.8,417.1z"/>
	<path class="st64" d="M795.5,416.9c0-1.7-4.8-3.1-10.6-3.1c-5.9,0-10.6,1.4-10.6,3.1c0,1.7,4.8,3,10.6,3
		C790.7,420,795.5,418.6,795.5,416.9z"/>
	<path class="st64" d="M809.5,417.5c0-1.3-2.6-2.5-5.9-2.5c-3.3,0-5.9,1.1-5.9,2.5s2.6,2.5,5.9,2.5
		C806.8,419.9,809.5,418.8,809.5,417.5z"/>
	<path class="st64" d="M805.3,403.6c0-1.3-2.6-2.5-5.9-2.5c-3.3,0-5.9,1.1-5.9,2.5c0,1.3,2.6,2.5,5.9,2.5
		C802.7,406,805.3,404.9,805.3,403.6z"/>
	<path class="st64" d="M767,388.2c0-1.3-2.6-2.5-5.9-2.5c-3.3,0-5.9,1.1-5.9,2.5c0,1.3,2.6,2.5,5.9,2.5
		C764.3,390.7,767,389.6,767,388.2z"/>
	<path class="st65" d="M966.6,546.2c-261.4,62.2-417.3,68.8-652.8,5.4c5.9,26.3,16.6,47.6,32.3,74.2c217.9,72,351.9,68.5,591.4,0
		C952.1,598,959.5,578,966.6,546.2z"/>
	<g>
		<path class="st66" d="M375.3,566.8c-20-4.6-40.3-9.5-61.4-15.2c5.9,26.3,16.6,47.6,32.3,74.2c25.7,8.5,50.2,15.9,73.9,22.3
			L375.3,566.8z"/>
		<path class="st66" d="M819,577l-54.6,89.7c56-8.7,104.2-21.1,173.1-40.8c14.5-27.7,21.9-47.8,29-79.6C913.6,558.8,865,569,819,577
			z"/>
		<path class="st66" d="M517.1,669.1c41.3,6.6,81.2,9.7,121.6,9.2L517.1,669.1z"/>
	</g>
</g>
</svg>
