<?xml version="1.0" encoding="utf-8"?>
<!-- Generator: Adobe Illustrator 22.0.0, SVG Export Plug-In . SVG Version: 6.00 Build 0)  -->
<svg version="1.0" id="colores" xmlns="http://www.w3.org/2000/svg" xmlns:xlink="http://www.w3.org/1999/xlink" x="0px" y="0px"
	 viewBox="0 0 1300 1300" style="enable-background:new 0 0 1300 1300;" xml:space="preserve">
<style type="text/css">
	.st0{opacity:0.6;}
	.st1{filter:url(#Adobe_OpacityMaskFilter);}
	.st2{filter:url(#Adobe_OpacityMaskFilter_1_);}
	.st3{mask:url(#SVGID_1_);fill:url(#SVGID_2_);}
	.st4{fill:url(#SVGID_3_);}
	.st5{filter:url(#Adobe_OpacityMaskFilter_2_);}
	.st6{filter:url(#Adobe_OpacityMaskFilter_3_);}
	.st7{mask:url(#SVGID_4_);fill:url(#SVGID_5_);}
	.st8{fill:url(#SVGID_6_);}
	.st9{fill:#D6843A;}
	.st10{fill:#E79C5A;}
	.st11{fill:#AD3E27;}
	.st12{fill:#C26233;}
	.st13{fill:#EDBC75;}
	.st14{fill:#A36B2B;}
	.st15{fill:#C7873F;}
	.st16{fill:#D0A64F;}
	.st17{fill:#EBC56A;}
	.st18{fill:#F2D28A;}
	.st19{fill:#E09A51;}
	.st20{opacity:0.6;fill:url(#SVGID_7_);}
	.st21{fill:url(#SVGID_8_);}
	.st22{fill:#CD8434;}
	.st23{fill:#E29C3E;}
	.st24{fill:#EBB251;}
	.st25{fill:#F0C866;}
	.st26{fill:#F6E290;}
	.st27{fill:#EAE0AB;}
	.st28{opacity:0.8;fill:#EAE0AB;}
	.st29{fill:#F2E9BC;}
	.st30{fill:#DF923C;}
	.st31{fill:#EBB247;}
	.st32{fill:#F1CB5A;}
	.st33{fill:#ECC042;}
	.st34{fill:#D78C33;}
	.st35{fill:#CB7528;}
	.st36{fill:#E9A440;}
	.st37{fill:#CE792C;}
	.st38{fill:#BB4B1D;}
	.st39{fill:#CE4927;}
	.st40{fill:#AF361D;}
	.st41{fill:#E06F30;}
	.st42{fill:#EAAB5B;}
	.st43{fill:#E4AF5D;}
	.st44{fill:#DB9640;}
	.st45{fill:#CB8644;}
	.st46{fill:#F0C75A;}
	.st47{fill:#F3D673;}
	.st48{fill:#F4DA57;}
	.st49{fill:#F1CD54;}
	.st50{fill:#F7E482;}
	.st51{fill:#E3D6CA;}
	.st52{fill:#CAB8A7;}
	.st53{fill:#D0C5BB;}
	.st54{fill:#F4EAE3;}
	.st55{fill:#AF9887;}
	.st56{fill:#CFBDAD;}
	.st57{fill:#EFE4DA;}
	.st58{fill:#FCF7F2;}
	.st59{fill:#CBC0B6;}
	.st60{fill:#AC9A8A;}
	.st61{fill:#CDBBA9;}
	.st62{fill:#CABEB2;}
	.st63{fill:#836050;}
	.st64{fill:#4D3124;}
	.st65{fill:#79412B;}
	.st66{fill:#643321;}
</style>
<g id="color">
</g>
<g id="_x32_0">
	<linearGradient id="SVGID_1_" gradientUnits="userSpaceOnUse" x1="114.1107" y1="18.5166" x2="1053.7411" y2="1408.8733">
		<stop  offset="0" style="stop-color:#F1CD64"/>
		<stop  offset="1" style="stop-color:#680035"/>
	</linearGradient>
	<path style="fill:url(#SVGID_1_);" d="M1147.3,653.6c7.2-43.6,3.9-82.6-15.8-108.3c-206.8-269.7-851.4-238.1-861.7-91.6
		c-15.7,26.6-25.5,63.4-27.6,106.9C130.5,656.9,20,872,72.2,935c74.8,90.4,161.5-7.8,302.9-66c26,21.1,52.6,36.4,76.1,43.7
		c35.9,18.2,95.7,17.9,137.9,14.7c28.8,40.2,221.6,24,277.8,3.5c2.2-0.8,4.4-2.2,6.4-3.8c4.1,1.2,8.1,2.4,12.1,3.6
		c58.8,26.4,95.7,18,111.5,11.5c8.9,4.8,17.6,9.5,25.7,14.1c0.3-0.3,0.6-0.7,0.9-1c103.6,55.7,155.8,93.6,195.9,64.8
		c22.5-16.2,23.6-79.5,7.7-152.5C1216.4,798.7,1188.3,715.3,1147.3,653.6z"/>
	<path class="st22" d="M497.7,630C465.4,489.5,386.2,391,321,410.1c-65.3,19-99.1,131.5-66.7,272c32.3,140.5,176.7,252.4,242,233.4
		C561.5,896.4,530.1,770.5,497.7,630z"/>
	<path class="st23" d="M72.2,935c92.7,111.9,203.5-65.5,414.1-97.8c0,0-13.6-310.8-140.2-323.5C219.4,501,3.1,851.5,72.2,935z"/>
	<path class="st24" d="M91.2,901.2c90.2,105,194-57.5,395.2-84.2c0,0-17.2-287.8-138.6-301.5C226.4,501.8,23.9,822.9,91.2,901.2z"/>
	<path class="st25" d="M139.9,824.4c58.9,92.9,157.5-27.8,317.3-30.2c0,0,17.9-232.9-75.2-255.4C288.7,516.3,95.9,755.1,139.9,824.4
		z"/>
	<path class="st23" d="M1219.5,1020c-57.7,41.4-140.2-54.9-364.7-144.1c0,0,79.1-303.2,209.3-272.9
		C1200.7,656.2,1274.9,980.2,1219.5,1020z"/>
	<path class="st24" d="M1213.9,989.8c-57.7,41.4-140.2-54.9-364.7-144.1c0,0,79.1-303.2,209.3-272.9
		C1195,626,1269.2,950.1,1213.9,989.8z"/>
	<path class="st25" d="M1200.7,953.1c-50.6,44.3-139.2-50.8-371.4-136.7c0,0,66.4-286.9,190.8-255.1
		C1147.9,612.2,1247.5,912.1,1200.7,953.1z"/>
	<path class="st22" d="M1163.5,680.8c-25.9-39.2-69.2-70.8-99.3-77.8c-130.3-30.3-209.3,272.9-209.3,272.9
		c70.5,28,124.4,56.1,167.9,80.3C1105,864,1162.4,788.4,1163.5,680.8z"/>
	<path class="st22" d="M398,872.1c19.7-72.9-48.2-298.4-120.7-336.9c-50.5-26.8,59.9-49.8,59.9-49.8s158.3,52.1,153.7,400.9
		L398,872.1z"/>
	<path class="st23" d="M299.9,515.8C514.8,795.1,338,869,473.3,916.3c75,28.3,223-18.7,287.3-16.3c59,2.3,180.8,57.4,211.7,46.4
		c79.9-28.4,232.4-305.6,159.2-401.1C898,240.7,106,320.4,299.9,515.8z"/>
	<path class="st24" d="M334,497.1c194.8,230.2,49.4,336.2,146.9,372.8c68.1,25.7,202.7-17,261.1-14.8
		c53.6,2.1,164.3,52.1,192.3,42.2c72.6-25.8,211.2-277.7,144.7-364.5C866.8,256,157.9,319.5,334,497.1z"/>
	<path class="st22" d="M888.2,763.4c9.4,89.6-4.7,212.3,123.5,162l-5.7,12.1c0,0-50.9,38.2-155.6-25.2L888.2,763.4z"/>
	<path class="st24" d="M342.3,819.7c-21-67.4,17.9-58.3,21.7-11.1C367.7,855.9,351.7,849.9,342.3,819.7z"/>
	<path class="st24" d="M1086.4,922.3c19.8-56.6,43.9-22.8,21.9,8.9C1086.2,962.9,1077.5,947.6,1086.4,922.3z"/>
	<path class="st24" d="M277.8,616.8c-44.3-53-5.2-61.2,15.8-19.4C314.6,639.3,297.7,640.6,277.8,616.8z"/>
	<path class="st24" d="M285.7,800.6c-17.8-61.5,15.2-53.3,18.4-10.1C307.3,833.7,293.7,828.2,285.7,800.6z"/>
	<path class="st24" d="M1156.5,779.5c-7.3-63.9,23.8-49.6,19.8-6.5C1172.2,816.2,1159.8,808.2,1156.5,779.5z"/>
	<path class="st24" d="M1160.4,873.9c14.9-61.4,33.5-41.4,16.8-1.9C1160.5,911.4,1153.7,901.3,1160.4,873.9z"/>
	<path class="st24" d="M217.9,858.1c-27.4-57.6,6.5-55.3,16.5-13.3C244.4,886.9,230.1,883.9,217.9,858.1z"/>
	<path class="st23" d="M181.1,908.3c-20-35.9,6.4-35.4,13.2-8.9C201.1,925.8,190,924.3,181.1,908.3z"/>
	<path class="st23" d="M98.8,879.7c-20-35.9,6.4-35.4,13.2-8.9C118.8,897.3,107.7,895.8,98.8,879.7z"/>
	<path class="st24" d="M233.4,751.1c-37.1-50.8-3.5-55.6,13.9-16.4C264.5,773.9,250,773.9,233.4,751.1z"/>
	<path class="st24" d="M144.7,779.3c-37.1-50.8-3.5-55.6,13.8-16.4C175.9,802.1,161.4,802.1,144.7,779.3z"/>
	<path class="st22" d="M431.4,897.7c165.5,3,166.4-174.6,338-276.2L637.8,921.8C637.8,921.8,475.2,949,431.4,897.7z"/>
	<path class="st23" d="M586.9,923.3c18.7,45.3,222,28.7,280,7.6c58-21.1,62.2-324.5-26.9-342.6C751,570.2,555.8,847.9,586.9,923.3z"
		/>
	<path class="st24" d="M633.5,899.8c14.2,39.4,181.9,37.4,229.2,19c47.3-18.4,53.8-295.2-17.9-310.9
		C773,592.1,609.8,834,633.5,899.8z"/>
	<path class="st25" d="M721.7,873c11,34.2,108.1,39.4,133.4,19.7c51.4-40.1,36.5-251-10.6-266C797.4,611.7,703.3,816.1,721.7,873z"
		/>
	<path class="st25" d="M374.8,430.3c30.8,111.9,396,102.9,497.9,23.5C974.6,374.4,337.7,295.7,374.8,430.3z"/>
	<path class="st23" d="M480.9,808.6c21.7-108.2,31.1-74,14.1-1.5C478,879.6,472.4,850.9,480.9,808.6z"/>
	<path class="st23" d="M573.9,736.5c14.9-100.9,26.4-69,14-1.4C575.5,802.7,568,776,573.9,736.5z"/>
	<path class="st23" d="M678,861.2c15.9-80.9,28.3-55.2,15-1.1C679.8,914.2,671.8,892.8,678,861.2z"/>
	<path class="st24" d="M814.7,839c15.9-80.8,28.3-55.2,15-1.1C816.5,891.9,808.5,870.5,814.7,839z"/>
	<path class="st24" d="M777,762.5c15.9-80.9,28.3-55.2,15-1.1C778.8,815.5,770.8,794,777,762.5z"/>
	<path class="st23" d="M999.9,517.2c2.6-90.7,18-62,13.9-1.3C1009.6,576.7,998.8,552.7,999.9,517.2z"/>
	<path class="st23" d="M1031.9,666.4c19.3-88.4,29.2-57,13.8,1.7C1030.4,726.7,1024.3,700.9,1031.9,666.4z"/>
	<path class="st23" d="M959.2,813.9c54.8-69.4,50.2-36.6,11.6,8.2C932.2,866.9,937.8,841,959.2,813.9z"/>
	<path class="st23" d="M560.4,595c-20.9-78.3,0.5-60.9,12.2-7.4C584.4,641.2,568.6,625.6,560.4,595z"/>
	<path class="st23" d="M920.9,573.3c17.6-79.2,28.2-52.9,14-0.1C920.7,626.1,914,604.2,920.9,573.3z"/>
	<path class="st23" d="M785,561.3c1.7-57.4,12.7-40.8,9.9-2.1C792,597.9,784.3,583.7,785,561.3z"/>
	<path class="st23" d="M472.1,573.3c-20.6-53.1-4.1-42.8,8.2-6.2C492.6,603.6,480.2,594.1,472.1,573.3z"/>
	<path class="st23" d="M360.2,473.7c-34.4-44-15.8-39.4,6.1-8.5C388.1,496,373.6,490.9,360.2,473.7z"/>
	<path class="st24" d="M702.4,501.7c-27.9-49-10.1-41.5,7.2-7.5C727,528.3,713.3,520.9,702.4,501.7z"/>
	<path class="st24" d="M601.1,446.4c-27.9-49-10.1-41.5,7.2-7.5C625.6,472.9,612,465.6,601.1,446.4z"/>
	<path class="st23" d="M653.5,651.3c5.3-57.2,15.3-39.7,10-1.4C658.2,688.4,651.4,673.7,653.5,651.3z"/>
	<path class="st23" d="M956,696.4c15.2-55.2,21.9-36,10,0.6C954.1,733.7,950,718,956,696.4z"/>
	<path class="st26" d="M376.2,438.9c22,50.3,89.1,48.3,50.9-13.6S356.4,393.6,376.2,438.9z"/>
	<path class="st26" d="M497.9,487.5c11.9,27.3,48.3,26.2,27.6-7.4C504.8,446.6,487.2,463,497.9,487.5z"/>
	<path class="st26" d="M816.7,639.6c-29,18.5-23,63.6,11.9,33.3C863.4,642.7,842.8,623,816.7,639.6z"/>
</g>
</svg>
