<?xml version="1.0" encoding="utf-8"?>
<!-- Generator: Adobe Illustrator 22.0.0, SVG Export Plug-In . SVG Version: 6.00 Build 0)  -->
<svg version="1.0" id="colores" xmlns="http://www.w3.org/2000/svg" xmlns:xlink="http://www.w3.org/1999/xlink" x="0px" y="0px"
	 viewBox="0 0 1300 1300" style="enable-background:new 0 0 1300 1300;" xml:space="preserve">
<style type="text/css">
	.st0{opacity:0.6;}
	.st1{filter:url(#Adobe_OpacityMaskFilter);}
	.st2{filter:url(#Adobe_OpacityMaskFilter_1_);}
	.st3{mask:url(#SVGID_1_);fill:url(#SVGID_2_);}
	.st4{fill:url(#SVGID_3_);}
	.st5{filter:url(#Adobe_OpacityMaskFilter_2_);}
	.st6{filter:url(#Adobe_OpacityMaskFilter_3_);}
	.st7{mask:url(#SVGID_4_);fill:url(#SVGID_5_);}
	.st8{fill:url(#SVGID_6_);}
	.st9{fill:#D6843A;}
	.st10{fill:#E79C5A;}
	.st11{fill:#AD3E27;}
	.st12{fill:#C26233;}
	.st13{fill:#EDBC75;}
	.st14{fill:#A36B2B;}
	.st15{fill:#C7873F;}
	.st16{fill:#D0A64F;}
	.st17{fill:#EBC56A;}
	.st18{fill:#F2D28A;}
	.st19{fill:#E09A51;}
	.st20{opacity:0.6;fill:url(#SVGID_7_);}
	.st21{fill:url(#SVGID_8_);}
	.st22{fill:#CD8434;}
	.st23{fill:#E29C3E;}
	.st24{fill:#EBB251;}
	.st25{fill:#F0C866;}
	.st26{fill:#F6E290;}
	.st27{fill:#EAE0AB;}
	.st28{opacity:0.8;fill:#EAE0AB;}
	.st29{fill:#F2E9BC;}
	.st30{fill:#DF923C;}
	.st31{fill:#EBB247;}
	.st32{fill:#F1CB5A;}
	.st33{fill:#ECC042;}
	.st34{fill:#D78C33;}
	.st35{fill:#CB7528;}
	.st36{fill:#E9A440;}
	.st37{fill:#CE792C;}
	.st38{fill:#BB4B1D;}
	.st39{fill:#CE4927;}
	.st40{fill:#AF361D;}
	.st41{fill:#E06F30;}
	.st42{fill:#EAAB5B;}
	.st43{fill:#E4AF5D;}
	.st44{fill:#DB9640;}
	.st45{fill:#CB8644;}
	.st46{fill:#F0C75A;}
	.st47{fill:#F3D673;}
	.st48{fill:#F4DA57;}
	.st49{fill:#F1CD54;}
	.st50{fill:#F7E482;}
	.st51{fill:#E3D6CA;}
	.st52{fill:#CAB8A7;}
	.st53{fill:#D0C5BB;}
	.st54{fill:#F4EAE3;}
	.st55{fill:#AF9887;}
	.st56{fill:#CFBDAD;}
	.st57{fill:#EFE4DA;}
	.st58{fill:#FCF7F2;}
	.st59{fill:#CBC0B6;}
	.st60{fill:#AC9A8A;}
	.st61{fill:#CDBBA9;}
	.st62{fill:#CABEB2;}
	.st63{fill:#836050;}
	.st64{fill:#4D3124;}
	.st65{fill:#79412B;}
	.st66{fill:#643321;}
</style>
<g id="color">
</g>
<g>
	<path class="st27" d="M167.9,405.4c-5.6-48.5-12.6-185.7,273.4-256.7c250.7-62.2,594.6,25,676.7,224.5
		c82.6,200.7,39.8,169.6,100.7,303.7c61,134.2,51,340.2-94.4,447.2c-187,137.7-355.8,57.4-463.8-87.2
		C550.8,890,415,957.4,316.5,863.6C-66.3,499.1,186.6,565.8,167.9,405.4z"/>
	<path class="st27" d="M143.5,441c4.3-41.9-12.9-77.3-38.3-79.1c-25.4-1.9-49.6,30.5-54,72.5c-4.3,41.9,12.9,77.3,38.3,79.1
		C115,515.4,139,483,143.5,441z"/>
	<path class="st28" d="M1253.7,867.1c-39.2-143.9-54.1-317-59-390.5c-4.9-74.2-54.3-172.5-143.2-240.7
		c-90.1-69-273.4-72.6-296.3-80.1C732.3,148.3,1253.7,867.1,1253.7,867.1z"/>
	<path class="st28" d="M134.6,532.4c41.9,76.5,76.3,183.9,91.2,233.8c15.9,53.2,72.4,126.6,162.2,180.3
		c101.9,60.9,291.6,61.8,320.2,69.2C737.6,1023.2,134.6,532.4,134.6,532.4z"/>
	<path class="st29" d="M163.8,497.5c-32.2,48.7-35.7,203.3,109.6,282.5s272-81.9,274.6-138.6C550.6,584.6,258.8,353.5,163.8,497.5z"
		/>
	<path class="st29" d="M509.9,180.3c-54.9-19.8-206,13.3-248.7,173.2c-42.7,159.8,143.7,245,199.5,234.1
		C516.5,576.8,672.2,238.7,509.9,180.3z"/>
	<path class="st29" d="M573.3,624.7c-82.2,6.2-202,106.9-53,279.2c149,172.4,449.9,168.6,495.8,132.7
		C1062.1,1000.7,816.3,606.4,573.3,624.7z"/>
	<path class="st29" d="M999.1,641.5c75.8-32.5,156.5-166.5-40.2-281.3c-196.7-114.8-480.3-13.8-512.1,35
		C414.9,444,775.1,737.5,999.1,641.5z"/>
	<path class="st29" d="M1158.7,1074.3c49.4-46.3,121.8-244.1,33-421.4c-88.8-177.4-269.6-34.9-297.4,37.1
		C866.6,761.8,1012.7,1211,1158.7,1074.3z"/>
	<path class="st30" d="M760.2,437.5c235.7,77.3,228.9,227.7,200.7,308.2c-28.2,80.4-168.9,162-312.2,60.7
		C505.3,705,477.2,618.8,503.3,545.5C529.3,472.1,608.9,387.9,760.2,437.5z"/>
	<path class="st31" d="M752.5,448.4c198.2,63.7,191.9,189.7,167.8,257.1c-24.1,67.4-142.9,136.3-263.2,52
		c-120.3-84.2-143.7-156.3-121.4-217.8C557.8,478.3,625.2,407.5,752.5,448.4z"/>
	<path class="st32" d="M711.1,469.5c126.1,25.3,129.5,91.9,115.6,127.7c-13.8,35.7-90.6,59.8-159,7.3c-55.2-42.4-64.6-71.5-55.6-95
		C621,485.8,649.2,457.1,711.1,469.5z"/>
	<path class="st32" d="M886.3,641.8c-14.6,46.2-41.6,49.4-55.5,45.5c-13.9-3.9-20.9-30.8,2.7-57c19-21.2,31.1-25.4,40.2-22.9
		C883,609.9,893.5,619.2,886.3,641.8z"/>
	<path class="st30" d="M942.5,815.6c-3.2-5.4-12.2-5.8-20.2-0.9c-7.9,4.9-11.8,13.3-8.6,18.7c3.2,5.4,12.2,5.8,20.1,1
		C941.8,829.4,945.7,821,942.5,815.6z"/>
	<path class="st30" d="M978.8,754.9c-6.9-3.7-18.3,4.7-25.4,18.7c-7.1,14-7.3,28.3-0.3,32c6.9,3.7,18.3-4.7,25.4-18.7
		C985.6,772.9,985.7,758.6,978.8,754.9z"/>
	<path class="st30" d="M526.2,477c-60.6,49.2-109.8,167.1,10.6,265.4C460.4,638.7,450.6,571.6,526.2,477z"/>
</g>
</svg>
